# xmcd
#
# Track frame offsets:
#	150
#	30446
#	61510
#	92910
#	127194
#	156483
#	174118
#	187543
#	223304
#	249521
#	284958
#	299291
#	315850
#	331374
#
# Disc length: 4631
#
# Revision: 1
# Processed by: cddbd v1.5.1PL0 Copyright (c) Steve Scherf et al.
# Submitted via: EasyCDDAExtractor 5.0.5.1
# Normalized: r0:DSETVAR1
#
DISCID=c812150e
DTITLE=Various Artist - DEE JAY MIX CLUB KWIECIEÑ 2003 PART 6
DYEAR=2003
DGENRE=Acid
TTITLE0=STARPLASH - ENDLESS FANTASY
TTITLE1=BLOCK HEADS - RADAR BITES
TTITLE2=JUNKFOOD JUNKIES - PARTY TIME
TTITLE3=DARUDE - MUSIC
TTITLE4=KORES and D'ACIDO - I WANT YOU
TTITLE5=NEW TONE-ESTERO - WAITING FOR YOUR LOVE
TTITLE6=ROXETTE - OPPORTUNITY NOX
TTITLE7=ALIZEE - J'EN AI MARRE (RMX)
TTITLE8=MOONY - ACROBATS(RMX)
TTITLE9=SIMPLY RED - SUNRISE(RMX)
TTITLE10=MEDICINE 8 - ROCK MUSIC PAYS OFF
TTITLE11=LISA MARIE PRESLEY - LIGHTS OUT
TTITLE12=DES'REE - IT'S OKAY(RMX)
TTITLE13=SEAN PAUL - GET BUSY
EXTD=
EXTT0=
EXTT1=
EXTT2=
EXTT3=
EXTT4=
EXTT5=
EXTT6=
EXTT7=
EXTT8=
EXTT9=
EXTT10=
EXTT11=
EXTT12=
EXTT13=
PLAYORDER=
